<?xml version="1.0" standalone="no"?>
<!DOCTYPE svg PUBLIC "-//W3C//DTD SVG 20010904//EN"
 "http://www.w3.org/TR/2001/REC-SVG-20010904/DTD/svg10.dtd">
<svg version="1.0" xmlns="http://www.w3.org/2000/svg"
 width="1263.000000pt" height="1263.000000pt" viewBox="0 0 1263.000000 1263.000000"
 preserveAspectRatio="xMidYMid meet">
<metadata>
Created by potrace 1.14, written by Peter Selinger 2001-2017
</metadata>
<g transform="translate(0.000000,1263.000000) scale(0.100000,-0.100000)"
fill="#000000" stroke="none">
<path d="M6737 12144 c-1 -1 -56 -4 -122 -8 -66 -3 -129 -8 -140 -10 -11 -2
-51 -7 -90 -11 -153 -15 -517 -77 -712 -121 -939 -210 -1702 -557 -2333 -1060
-303 -242 -680 -662 -851 -949 -17 -27 -44 -72 -61 -100 -61 -99 -179 -334
-236 -470 -168 -397 -275 -797 -322 -1195 -6 -52 -13 -108 -15 -125 -29 -220
-26 -792 5 -1035 5 -41 12 -95 14 -119 8 -69 17 -129 32 -221 8 -47 17 -101
20 -120 3 -19 10 -55 16 -80 5 -25 12 -56 14 -70 27 -147 133 -529 214 -770
119 -357 213 -588 357 -874 120 -241 174 -310 269 -346 152 -56 319 5 396 145
28 52 33 69 33 135 0 66 -5 113 -19 186 -2 12 -7 45 -11 75 -3 30 -8 65 -10
79 -2 14 -9 72 -14 130 -6 58 -13 125 -16 150 -25 253 -26 938 0 1190 7 67 16
165 20 201 6 63 17 163 20 180 2 9 6 40 10 70 4 30 10 72 15 94 5 22 11 60 15
85 3 25 8 52 10 60 2 8 7 30 10 48 39 231 142 591 253 887 162 429 411 872
692 1230 193 247 477 545 680 715 36 30 67 57 70 60 61 63 346 279 574 435
117 80 162 116 164 133 5 30 -20 38 -71 22 -48 -14 -229 -83 -297 -113 -172
-75 -373 -174 -431 -210 -13 -8 -49 -28 -79 -44 -118 -64 -361 -220 -445 -285
-308 -240 -487 -405 -691 -633 -359 -403 -653 -888 -861 -1419 -72 -185 -193
-571 -218 -695 -2 -9 -17 -86 -34 -171 -17 -85 -33 -171 -36 -190 -3 -19 -7
-44 -9 -56 -2 -12 -7 -45 -11 -74 -4 -29 -9 -62 -11 -74 -7 -37 -18 -140 -17
-163 0 -13 -3 -23 -7 -23 -8 0 -20 48 -59 245 -21 100 -25 126 -36 200 -3 23
-7 51 -10 64 -2 12 -9 68 -15 124 -6 56 -13 118 -15 137 -15 133 -21 503 -11
660 7 99 18 223 21 240 1 8 6 40 9 70 4 30 13 91 21 135 8 44 17 96 20 115 22
138 148 576 190 667 8 17 15 36 15 42 0 6 4 19 9 29 5 9 13 28 18 42 30 75
174 360 229 452 179 299 430 605 675 823 248 219 461 377 719 530 213 127 499
272 663 336 29 11 66 27 82 34 69 32 426 162 495 180 8 3 69 21 135 40 184 55
396 108 595 150 26 5 184 34 215 39 86 14 225 35 265 40 l45 6 38 -103 c21
-56 39 -109 42 -117 19 -68 198 -536 208 -542 16 -10 21 -10 39 5 15 11 12 28
-33 182 -28 94 -53 179 -56 190 -3 11 -19 65 -35 120 -16 55 -45 153 -64 217
-41 142 -52 168 -73 169 -40 4 -72 5 -74 3z"/>
<path d="M7810 10367 c-3 -3 -29 -8 -59 -11 -29 -3 -79 -10 -110 -15 -31 -6
-74 -13 -96 -16 -22 -3 -80 -13 -130 -21 -49 -9 -103 -18 -120 -21 -313 -50
-943 -227 -1150 -323 -11 -5 -49 -20 -85 -34 -174 -64 -676 -337 -794 -432
-46 -36 -47 -37 -96 -71 -25 -17 -55 -39 -67 -49 -12 -11 -37 -30 -55 -44
-111 -84 -317 -286 -435 -425 -99 -116 -303 -399 -303 -419 0 -3 -16 -30 -35
-60 -51 -80 -156 -293 -214 -434 -65 -160 -160 -454 -186 -580 -2 -9 -15 -73
-29 -142 -25 -124 -29 -149 -42 -245 -3 -27 -8 -58 -10 -68 -2 -10 -6 -52 -9
-93 -4 -42 -8 -85 -10 -96 -6 -29 -18 -309 -18 -423 -1 -117 12 -465 17 -474
2 -3 7 -49 11 -101 3 -52 8 -110 11 -127 2 -18 6 -48 8 -65 3 -18 8 -55 11
-83 11 -86 54 -339 76 -442 11 -54 23 -109 25 -123 12 -63 78 -325 105 -420
46 -158 140 -443 151 -457 6 -7 21 -13 34 -13 34 0 32 30 -12 163 -35 110
-123 449 -144 562 -7 33 -16 78 -21 100 -19 89 -72 424 -84 528 -2 23 -7 65
-10 92 -38 319 -47 823 -20 1099 2 22 7 68 10 101 12 119 50 378 65 435 5 19
11 49 14 65 20 120 125 475 171 580 7 17 33 75 56 130 124 288 304 577 513
820 119 140 346 351 466 435 19 13 37 28 38 32 2 4 8 8 12 8 5 0 49 28 97 63
48 35 106 73 128 86 104 61 297 171 300 171 2 0 77 34 168 75 160 73 198 87
474 180 266 90 715 190 1038 231 28 3 58 8 67 9 9 2 48 7 85 10 37 4 70 9 73
10 7 4 179 18 203 17 28 -1 40 -15 146 -156 96 -129 272 -344 361 -440 128
-140 184 -199 285 -299 465 -463 1037 -906 1625 -1260 177 -106 201 -120 345
-197 105 -57 149 -81 154 -85 3 -4 -34 -79 -194 -390 -112 -218 -238 -463
-367 -715 -50 -96 -94 -179 -98 -183 -6 -7 -88 36 -310 160 -424 238 -405 232
-595 184 -117 -29 -136 -33 -240 -47 -173 -23 -345 -19 -520 12 -48 8 -172 52
-228 80 -208 106 -346 285 -426 554 -47 160 -55 180 -83 214 -98 119 -284 128
-394 19 -73 -73 -89 -160 -70 -377 4 -50 9 -97 11 -105 1 -9 5 -37 9 -62 18
-124 40 -226 82 -377 93 -336 236 -650 447 -987 28 -44 54 -81 59 -83 4 -2 8
-8 8 -14 0 -13 180 -254 256 -343 158 -184 325 -415 417 -575 62 -108 189
-376 240 -505 74 -189 162 -469 183 -585 3 -14 11 -50 18 -80 8 -30 17 -74 20
-97 3 -23 8 -47 11 -55 4 -11 -256 -13 -1552 -13 -1652 -1 -2855 -13 -3033
-30 -163 -16 -325 -76 -460 -168 -141 -97 -287 -282 -348 -442 -67 -175 -71
-235 -58 -805 11 -510 12 -526 41 -605 44 -123 137 -219 255 -268 53 -21 66
-22 345 -21 262 1 506 6 865 19 69 2 204 7 300 10 264 8 483 15 600 20 58 2
186 7 285 10 99 3 225 7 280 10 55 3 174 7 265 10 91 4 201 8 245 10 44 2 152
7 240 10 88 3 201 8 250 10 50 2 144 7 210 10 189 9 302 14 415 20 58 3 152 8
210 10 130 6 267 13 385 20 50 3 137 7 195 10 58 3 134 8 170 10 36 2 110 7
165 10 55 3 132 8 170 11 39 2 108 7 154 10 47 3 88 7 93 10 15 10 8 53 -9 58
-18 5 -71 10 -253 21 -52 3 -131 8 -175 11 -44 3 -114 7 -155 9 -71 4 -159 8
-370 20 -126 7 -296 16 -590 30 -52 2 -151 7 -220 10 -140 7 -231 11 -435 20
-77 3 -178 7 -225 10 -47 2 -159 7 -250 10 -91 3 -201 7 -245 10 -44 2 -161 7
-260 10 -99 3 -225 7 -280 10 -55 3 -181 7 -280 10 -99 3 -227 8 -285 10 -58
3 -195 8 -305 11 -110 3 -245 7 -300 9 -55 2 -210 6 -345 10 -135 4 -288 8
-340 10 -52 2 -130 3 -173 4 l-78 1 6 268 c9 422 14 565 19 587 28 133 90 215
206 273 l55 27 325 -1 c179 -1 584 -5 900 -10 510 -7 2989 -10 3420 -5 185 2
259 15 358 62 172 83 297 298 285 494 -11 190 -130 656 -245 965 -203 545
-445 948 -832 1390 -148 169 -247 295 -332 420 -85 126 -188 299 -181 306 2 3
31 -4 64 -15 286 -96 684 -100 1075 -10 l88 21 117 -63 c235 -124 280 -147
396 -209 65 -34 139 -68 165 -74 117 -31 248 -9 348 58 97 66 93 58 411 716
87 178 193 397 318 655 101 207 111 236 114 326 2 72 -24 169 -61 224 -59 86
-79 99 -358 242 -85 44 -172 90 -192 102 -21 11 -55 30 -75 42 -383 215 -895
565 -1193 816 -143 120 -188 158 -270 232 -91 80 -439 427 -526 521 -66 73
-244 288 -312 378 -110 144 -206 201 -357 209 -44 3 -82 3 -85 0z"/>
</g>
</svg>
